<?xml version="1.0" standalone="no"?>
<!DOCTYPE svg PUBLIC "-//W3C//DTD SVG 20010904//EN"
 "http://www.w3.org/TR/2001/REC-SVG-20010904/DTD/svg10.dtd">
<svg version="1.0" xmlns="http://www.w3.org/2000/svg"
 width="380.000000pt" height="296.000000pt" viewBox="0 0 380.000000 296.000000"
 preserveAspectRatio="xMidYMid meet">

<g transform="translate(0.000000,296.000000) scale(0.100000,-0.100000)"
fill="#000000" stroke="none">
<path d="M1443 2238 c-336 -336 -383 -386 -383 -413 0 -27 48 -78 388 -418
213 -213 393 -387 400 -387 7 0 25 6 40 14 39 21 759 747 766 773 4 13 1 34
-8 50 -8 15 -180 193 -383 396 -341 339 -372 367 -403 367 -32 0 -63 -29 -417
-382z m417 -13 c8 -9 1 -12 -27 -11 -23 1 -48 -6 -62 -16 -13 -10 -27 -18 -31
-18 -16 0 3 38 23 48 29 14 85 12 97 -3z m106 -3 c27 -22 38 -52 19 -52 -9 0
-12 6 -9 15 4 8 1 15 -5 15 -6 0 -11 -5 -11 -11 0 -8 -4 -8 -14 0 -18 15 -46
5 -73 -27 -13 -16 -27 -23 -37 -19 -21 8 -21 27 0 27 19 0 54 37 54 57 0 19
51 16 76 -5z m-176 -48 c0 -10 -28 -34 -39 -34 -6 0 -11 -4 -11 -9 0 -5 -7
-12 -16 -15 -13 -5 -14 -4 -6 7 8 9 8 17 1 24 -7 7 -5 12 6 17 11 4 14 2 9 -6
-4 -6 3 -4 17 5 24 17 39 22 39 11z m168 -26 c-5 -15 -68 -24 -68 -9 0 9 21
16 58 20 8 0 12 -5 10 -11z m-258 -49 c0 -16 -4 -29 -9 -29 -4 0 -8 15 -7 34
1 41 16 37 16 -5z m96 -18 c-15 -29 -15 -33 5 -76 12 -25 41 -67 65 -94 35
-39 41 -50 28 -55 -9 -3 -19 -4 -23 -2 -4 3 -7 -3 -7 -13 0 -20 23 -24 30 -6
5 15 49 12 54 -4 2 -6 0 -11 -5 -10 -21 4 -33 -2 -33 -16 0 -17 14 -19 40 -5
15 8 24 3 50 -28 17 -20 33 -48 37 -62 3 -14 10 -31 16 -38 6 -7 8 -45 4 -92
-4 -68 -9 -85 -32 -112 -59 -70 -174 -92 -267 -50 -40 17 -52 29 -75 77 -23
47 -25 59 -15 75 10 17 10 20 -3 20 -11 0 -15 11 -15 40 0 45 18 60 74 60 27
0 34 -3 30 -15 -4 -8 -2 -15 4 -15 6 0 13 6 15 13 3 6 6 -12 6 -41 1 -67 23
-110 59 -118 45 -10 52 -13 52 -24 0 -5 -11 -10 -24 -10 -20 0 -56 -22 -56
-35 0 -1 11 -5 25 -7 21 -5 25 -2 20 13 -4 13 -1 19 9 19 9 0 16 -7 16 -15 0
-21 30 -19 31 3 2 28 7 64 14 107 4 26 1 55 -9 84 -8 25 -13 48 -11 52 3 4 -6
10 -20 13 -25 6 -43 45 -30 65 3 6 0 8 -8 5 -8 -3 -17 2 -21 11 -4 11 -12 15
-22 11 -10 -4 -26 5 -42 23 -43 47 -54 61 -74 103 l-19 40 22 24 c25 26 45 31
52 12 2 -7 8 -10 12 -5 5 4 3 13 -3 19 -18 18 -15 68 4 68 8 0 12 5 9 10 -4 6
-1 18 6 26 11 13 14 13 27 1 12 -13 12 -19 -2 -46z m144 35 c0 -3 -4 -8 -10
-11 -5 -3 -10 -1 -10 4 0 6 5 11 10 11 6 0 10 -2 10 -4z m100 -6 c0 -5 -5 -10
-11 -10 -5 0 -7 5 -4 10 3 6 8 10 11 10 2 0 4 -4 4 -10z m-58 -42 c-7 -7 -12
-8 -12 -2 0 6 3 14 7 17 3 4 9 5 12 2 2 -3 -1 -11 -7 -17z m-301 -61 c-7 -7
-13 -4 -20 14 -12 33 -2 45 16 19 11 -16 12 -25 4 -33z m277 30 c2 -12 -1 -15
-12 -11 -19 7 -22 38 -3 32 6 -3 13 -12 15 -21z m50 -8 c7 21 22 11 22 -14 0
-14 6 -25 13 -25 8 0 7 -4 -3 -10 -20 -13 -97 -13 -105 0 -4 6 7 10 24 10 17
0 31 4 31 10 0 5 -8 6 -17 3 -13 -5 -15 -2 -10 11 4 10 7 22 7 28 0 5 8 2 17
-8 11 -11 18 -13 21 -5z"/>
<path d="M1705 1989 c-9 -27 34 -78 47 -55 13 24 -2 47 -26 40 -18 -6 -19 -5
-8 9 8 9 9 18 3 21 -5 4 -13 -3 -16 -15z"/>
<path d="M1815 1920 c3 -5 8 -10 11 -10 2 0 4 5 4 10 0 6 -5 10 -11 10 -5 0
-7 -4 -4 -10z"/>
<path d="M1825 1879 c-10 -15 3 -25 16 -12 7 7 7 13 1 17 -6 3 -14 1 -17 -5z"/>
<path d="M1917 1749 c7 -7 15 -10 18 -7 3 3 -2 9 -12 12 -14 6 -15 5 -6 -5z"/>
<path d="M1970 1741 c0 -25 6 -27 13 -6 4 8 2 17 -3 20 -6 4 -10 -3 -10 -14z"/>
<path d="M1697 1565 c2 -7 15 -12 28 -12 30 0 24 13 -9 19 -16 3 -23 1 -19 -7z"/>
<path d="M1745 1521 c-7 -13 34 -51 54 -51 11 0 9 6 -9 20 -14 11 -29 20 -33
20 -5 0 -5 5 -2 10 3 6 4 10 1 10 -3 0 -7 -4 -11 -9z"/>
<path d="M1715 1510 c3 -5 8 -10 11 -10 2 0 4 5 4 10 0 6 -5 10 -11 10 -5 0
-7 -4 -4 -10z"/>
<path d="M438 860 c19 -4 39 -13 45 -20 10 -10 8 -11 -8 -6 -23 9 -24 9 -51 7
-23 -1 -37 -22 -29 -44 3 -6 25 -25 50 -40 32 -21 45 -35 45 -52 0 -41 -60
-67 -95 -41 -19 14 -18 15 17 9 39 -6 68 8 68 33 0 7 -19 25 -42 41 -55 37
-67 57 -50 84 17 27 5 40 -14 14 -25 -33 -13 -66 35 -100 25 -17 46 -36 48
-42 6 -16 -24 -24 -51 -13 -18 7 -28 5 -37 -7 -33 -39 83 -61 121 -23 39 39
20 89 -50 125 -50 26 -21 53 32 31 11 -5 20 -1 28 13 9 18 7 22 -15 31 -15 6
-38 10 -53 9 -25 -1 -24 -2 6 -9z"/>
<path d="M610 853 c-52 -36 -68 -84 -46 -137 27 -66 97 -93 161 -64 27 12 29
16 16 36 -6 9 -19 11 -45 7 -77 -15 -116 56 -61 111 14 14 30 22 35 19 6 -3
10 -1 10 4 0 20 -46 11 -69 -13 -56 -60 -9 -154 71 -143 21 3 36 1 32 -4 -3
-5 -22 -9 -43 -9 -73 0 -118 71 -87 136 22 47 74 72 115 54 36 -14 42 -34 9
-25 -21 5 -21 5 -4 -6 14 -9 21 -8 35 6 15 15 15 17 -3 31 -27 19 -96 18 -126
-3z"/>
<path d="M810 755 c0 -96 3 -115 15 -115 8 0 15 5 15 10 0 6 -4 10 -10 10 -6
0 -10 36 -10 89 0 50 5 93 10 96 6 4 10 -12 10 -39 l0 -46 64 0 65 0 4 48 c2
26 4 6 5 -45 3 -132 22 -131 22 1 l0 106 -25 0 c-23 0 -25 -4 -25 -45 l0 -45
-50 0 -50 0 0 45 c0 38 -3 45 -20 45 -19 0 -20 -7 -20 -115z"/>
<path d="M1101 845 c-41 -36 -56 -84 -38 -127 16 -37 44 -65 55 -54 4 4 -1 12
-10 17 -27 15 -42 75 -28 110 17 40 77 71 116 60 31 -8 74 -62 74 -93 0 -36
-31 -79 -68 -96 -27 -11 -32 -17 -19 -20 30 -6 80 31 96 71 42 110 -89 206
-178 132z"/>
<path d="M1376 840 c-52 -46 -57 -117 -11 -163 22 -23 42 -22 22 1 -30 33 -41
79 -27 113 17 40 77 71 116 60 31 -8 74 -62 74 -93 0 -36 -31 -79 -68 -96 -25
-11 -32 -17 -20 -19 42 -10 108 58 108 111 0 35 -30 85 -59 100 -48 25 -95 20
-135 -14z"/>
<path d="M1620 755 l0 -115 65 0 c63 0 65 1 65 26 0 20 -5 25 -22 24 -59 -5
-58 -7 -58 90 0 89 0 90 -25 90 l-25 0 0 -115z m31 2 l1 -87 42 0 c28 -1 36
-3 26 -9 -8 -5 -30 -6 -47 -4 l-33 5 0 96 c0 52 2 93 5 90 3 -2 5 -43 6 -91z"/>
<path d="M1810 755 l0 -115 53 0 c68 0 97 19 97 66 0 21 -6 37 -14 40 -12 5
-12 10 2 34 14 24 14 32 3 53 -15 29 -37 37 -98 37 l-43 0 0 -115z m118 83
c17 -17 15 -53 -3 -68 -14 -12 -14 -15 0 -30 19 -21 19 -54 1 -69 -8 -7 -33
-11 -56 -9 l-42 3 -3 70 c-5 106 -1 115 49 115 23 0 47 -5 54 -12z"/>
<path d="M1840 801 c0 -38 2 -41 29 -41 34 0 54 20 49 52 -2 19 -10 24 -40 26
l-38 3 0 -40z m65 -1 c0 -8 -10 -16 -22 -18 -18 -3 -23 2 -23 18 0 16 5 21 23
18 12 -2 22 -10 22 -18z"/>
<path d="M1840 710 c0 -39 1 -40 33 -40 34 0 57 15 57 36 0 22 -31 44 -61 44
-27 0 -29 -2 -29 -40z m70 0 c0 -15 -7 -20 -25 -20 -18 0 -25 5 -25 20 0 15 7
20 25 20 18 0 25 -5 25 -20z"/>
<path d="M2044 836 c-45 -45 -48 -108 -8 -155 14 -17 30 -28 35 -25 5 3 -2 19
-16 36 -33 39 -34 96 -2 125 54 49 101 50 142 1 46 -55 27 -125 -44 -156 -25
-11 -31 -17 -19 -19 26 -6 76 24 93 57 19 37 19 73 0 110 -21 42 -53 60 -103
60 -37 0 -50 -6 -78 -34z"/>
<path d="M2324 836 c-29 -29 -34 -41 -34 -79 0 -47 29 -97 57 -97 11 0 8 8
-11 31 -34 40 -35 97 -3 126 54 49 101 50 142 1 46 -55 27 -125 -44 -156 -25
-11 -31 -17 -19 -19 26 -6 76 24 93 57 19 37 19 73 0 110 -21 42 -53 60 -103
60 -37 0 -50 -6 -78 -34z"/>
<path d="M2638 860 c19 -4 39 -13 45 -20 10 -10 8 -11 -8 -5 -30 12 -58 8 -72
-11 -17 -23 -9 -36 42 -66 37 -23 45 -33 45 -57 0 -37 -41 -58 -83 -42 -39 15
-33 19 21 18 44 -2 47 0 47 22 0 17 -13 33 -45 56 -48 34 -59 57 -39 81 6 8 9
17 6 20 -3 3 -13 -6 -23 -21 -22 -34 -7 -69 40 -92 38 -18 53 -40 37 -56 -7
-7 -19 -6 -38 2 -24 11 -29 10 -40 -6 -12 -15 -11 -20 4 -30 23 -18 84 -16
111 3 32 22 30 76 -4 103 -14 11 -34 23 -44 26 -25 8 -33 34 -14 42 9 3 26 1
37 -6 16 -11 22 -10 36 4 15 15 15 17 -3 31 -11 8 -36 14 -55 13 l-36 -1 33
-8z"/>
<path d="M2760 845 c0 -20 5 -25 25 -25 25 0 25 -1 25 -90 0 -89 0 -90 25 -90
25 0 25 1 25 90 0 89 0 90 25 90 20 0 25 5 25 25 0 24 -2 25 -75 25 -73 0 -75
-1 -75 -25z m113 -3 l-33 -3 -2 -92 -2 -92 -3 93 -4 92 -29 0 c-17 0 -30 3
-30 8 0 4 30 5 67 2 41 -2 55 -6 36 -8z"/>
<path d="M2969 868 c-6 -19 -4 -209 2 -219 10 -16 9 -22 12 101 l2 94 34 7
c19 4 44 3 55 -1 16 -7 10 -9 -26 -9 l-48 -1 0 -39 c0 -40 0 -40 43 -44 l42
-4 -42 -1 -43 -2 0 -40 0 -40 48 -1 c38 -1 42 -2 22 -9 -25 -8 -22 -11 18 -15
17 -2 22 3 22 21 0 22 -4 24 -44 24 -39 0 -56 11 -56 35 0 2 19 5 43 7 34 2
43 7 45 25 3 19 -2 22 -40 25 -31 2 -44 8 -46 21 -3 14 4 17 47 17 48 0 51 2
51 25 0 24 -2 25 -70 25 -38 0 -70 -1 -71 -2z"/>
<path d="M3170 755 l0 -115 25 0 c23 0 25 4 25 45 0 25 4 45 9 45 5 0 20 -19
33 -42 17 -32 30 -44 51 -46 l27 -3 -21 44 -22 44 22 22 c27 27 27 75 1 101
-16 16 -33 20 -85 20 l-65 0 0 -115z m131 85 c26 -14 25 -64 -2 -89 -19 -18
-20 -21 -5 -49 19 -36 19 -42 6 -42 -5 0 -10 5 -10 11 0 25 -42 69 -66 69 -21
0 -24 -4 -25 -42 l-1 -43 -8 50 c-4 28 -6 64 -5 80 2 17 3 38 4 48 1 13 10 17
47 17 25 0 54 -5 65 -10z"/>
<path d="M3200 800 c0 -40 0 -40 38 -40 41 1 72 19 72 43 0 22 -31 37 -74 37
-35 0 -36 -1 -36 -40z m88 -4 c-2 -16 -11 -22 -35 -24 -29 -3 -33 0 -33 22 0
27 13 35 48 28 17 -3 22 -10 20 -26z"/>
<path d="M1116 817 c-53 -53 -18 -147 54 -147 39 0 90 47 90 84 0 36 -39 76
-82 83 -30 4 -41 1 -62 -20z m103 -23 c12 -15 21 -32 21 -39 0 -23 -41 -65
-64 -65 -37 0 -66 28 -66 62 0 66 69 92 109 42z"/>
<path d="M1396 817 c-37 -37 -36 -97 0 -126 57 -45 138 -8 138 63 0 45 -27 75
-76 83 -30 4 -41 1 -62 -20z m103 -23 c12 -15 21 -32 21 -39 0 -27 -41 -65
-70 -65 -36 0 -70 40 -63 73 15 60 76 77 112 31z"/>
<path d="M2067 812 c-50 -53 -26 -127 46 -139 95 -15 135 125 44 157 -46 15
-61 13 -90 -18z m103 -12 c26 -26 25 -58 -2 -87 -26 -28 -61 -30 -88 -3 -24
24 -26 57 -4 88 19 28 67 29 94 2z"/>
<path d="M2347 816 c-55 -51 -27 -133 49 -143 36 -5 43 -2 67 27 33 39 34 71
5 105 -34 38 -86 43 -121 11z m100 -18 c29 -27 29 -55 1 -85 -26 -28 -61 -30
-88 -3 -24 24 -26 57 -4 88 20 28 61 29 91 0z"/>
<path d="M842 708 c1 -37 2 -39 5 -10 4 31 5 32 54 32 l49 0 0 -42 c0 -32 3
-39 10 -28 5 8 10 32 10 53 l0 37 -65 0 -65 0 2 -42z"/>
<path d="M3020 650 c0 -5 5 -10 11 -10 5 0 7 5 4 10 -3 6 -8 10 -11 10 -2 0
-4 -4 -4 -10z"/>
<path d="M870 435 c0 -58 2 -65 19 -65 33 0 50 26 45 68 -9 57 -12 62 -39 62
-24 0 -25 -2 -25 -65z m40 30 c0 -8 -4 -15 -10 -15 -5 0 -10 7 -10 15 0 8 5
15 10 15 6 0 10 -7 10 -15z m0 -49 c0 -8 -4 -18 -10 -21 -5 -3 -10 3 -10 14 0
12 5 21 10 21 6 0 10 -6 10 -14z"/>
<path d="M1915 490 c-3 -5 -1 -10 4 -10 6 0 11 5 11 10 0 6 -2 10 -4 10 -3 0
-8 -4 -11 -10z"/>
<path d="M2130 434 c0 -41 4 -63 10 -59 6 3 10 33 10 66 0 33 -4 59 -10 59 -6
0 -10 -29 -10 -66z"/>
<path d="M2530 435 c0 -37 4 -65 10 -65 6 0 10 28 10 65 0 37 -4 65 -10 65 -6
0 -10 -28 -10 -65z"/>
<path d="M2570 490 c0 -5 5 -10 10 -10 6 0 10 5 10 10 0 6 -4 10 -10 10 -5 0
-10 -4 -10 -10z"/>
<path d="M1192 470 c-7 -12 -8 -21 -2 -25 6 -3 10 -19 10 -35 0 -27 25 -49 39
-34 3 4 0 9 -6 11 -15 5 -17 44 -4 59 5 5 2 16 -8 26 -16 16 -17 16 -29 -2z"/>
<path d="M1622 470 c-7 -12 -8 -21 -2 -25 6 -3 10 -19 10 -35 0 -27 25 -49 39
-34 3 4 0 9 -6 11 -15 5 -17 44 -4 59 5 5 2 16 -8 26 -16 16 -17 16 -29 -2z"/>
<path d="M1119 454 c-11 -14 -10 -19 9 -34 27 -23 28 -33 2 -25 -11 3 -20 2
-20 -4 0 -12 37 -24 50 -16 17 10 11 33 -12 50 l-23 17 23 -7 c24 -7 29 4 10
23 -16 16 -23 15 -39 -4z"/>
<path d="M1352 462 c-20 -3 -23 -8 -20 -45 2 -23 8 -41 13 -39 6 2 9 12 7 23
-2 12 4 29 14 40 20 22 18 26 -14 21z"/>
<path d="M1702 462 c-20 -3 -23 -8 -20 -45 2 -23 8 -41 13 -39 6 2 9 14 7 27
-2 14 3 27 14 33 23 13 14 28 -14 24z"/>
<path d="M957 453 c-12 -12 -7 -60 7 -72 29 -24 61 10 50 55 -6 23 -41 34 -57
17z m30 -50 c-4 -17 -4 -17 -12 0 -4 9 -4 25 0 35 8 16 8 16 12 0 3 -10 3 -26
0 -35z"/>
<path d="M1037 453 c-12 -12 -7 -60 7 -72 25 -21 46 -2 46 40 0 34 -3 39 -23
39 -13 0 -27 -3 -30 -7z m30 -50 c-4 -17 -4 -17 -12 0 -4 9 -4 25 0 35 8 16 8
16 12 0 3 -10 3 -26 0 -35z"/>
<path d="M1254 446 c-17 -43 20 -92 50 -67 9 7 13 17 10 23 -4 5 -11 5 -18 -1
-7 -6 -16 -8 -19 -5 -11 11 3 24 25 24 14 0 18 5 14 16 -3 9 -6 18 -6 20 0 11
-51 2 -56 -10z"/>
<path d="M1464 443 c3 -10 8 -30 12 -45 6 -27 18 -36 28 -20 12 19 18 82 7 82
-6 0 -11 -10 -12 -22 l0 -23 -11 23 c-13 26 -32 30 -24 5z"/>
<path d="M1540 422 c0 -28 5 -42 16 -46 25 -10 45 14 42 48 -2 25 -8 32 -30
34 -26 3 -28 1 -28 -36z m40 -1 c0 -11 -4 -23 -10 -26 -6 -4 -10 5 -10 19 0
14 5 26 10 26 6 0 10 -9 10 -19z"/>
<path d="M1746 436 c-12 -47 23 -81 53 -52 19 19 7 33 -14 16 -12 -10 -15 -10
-15 4 0 10 8 16 21 16 31 0 20 34 -12 38 -21 2 -28 -2 -33 -22z"/>
<path d="M1890 422 c0 -45 23 -63 49 -38 19 19 7 33 -14 16 -12 -10 -15 -10
-15 4 0 10 8 16 21 16 32 0 20 34 -14 38 -25 3 -27 1 -27 -36z"/>
<path d="M1970 422 c0 -45 23 -63 49 -38 19 19 7 33 -14 16 -13 -11 -15 -9
-15 14 0 23 3 26 21 21 15 -5 20 -3 17 6 -3 8 -17 15 -31 17 -25 3 -27 1 -27
-36z"/>
<path d="M2050 422 c0 -28 5 -42 16 -46 25 -10 45 14 42 48 -2 25 -8 32 -30
34 -26 3 -28 1 -28 -36z m40 -1 c0 -11 -4 -23 -10 -26 -6 -4 -10 5 -10 19 0
14 5 26 10 26 6 0 10 -9 10 -19z"/>
<path d="M2170 422 c0 -45 23 -63 49 -38 19 19 7 33 -14 16 -12 -10 -15 -10
-15 4 0 10 8 16 21 16 32 0 20 34 -14 38 -25 3 -27 1 -27 -36z"/>
<path d="M2310 422 c0 -26 5 -42 15 -46 21 -8 45 3 45 20 0 17 -12 18 -28 2
-9 -9 -12 -8 -12 5 0 11 8 17 21 17 32 0 20 34 -14 38 -25 3 -27 1 -27 -36z"/>
<path d="M2390 415 c0 -25 5 -45 10 -45 6 0 10 16 10 35 0 19 5 35 10 35 6 0
10 -13 10 -29 0 -17 5 -33 10 -36 6 -4 10 12 10 39 0 44 -1 46 -30 46 -29 0
-30 -2 -30 -45z"/>
<path d="M2570 415 c0 -25 5 -45 10 -45 6 0 10 20 10 45 0 25 -4 45 -10 45 -5
0 -10 -20 -10 -45z"/>
<path d="M2614 446 c-10 -27 1 -60 24 -72 13 -7 19 -15 14 -18 -6 -3 -13 -2
-17 4 -10 16 -25 12 -19 -5 8 -20 50 -19 58 1 3 9 6 36 6 60 0 42 -1 44 -30
44 -17 0 -33 -6 -36 -14z m41 -29 c0 -26 -20 -25 -23 2 -3 16 1 22 10 19 7 -3
13 -12 13 -21z"/>
<path d="M2693 420 c3 -49 21 -58 25 -12 4 44 22 41 22 -5 0 -26 3 -34 11 -26
6 6 9 26 7 44 -3 30 -7 34 -35 37 -32 3 -33 3 -30 -38z"/>
<path d="M2774 446 c-17 -43 20 -92 50 -67 9 7 13 17 10 23 -4 5 -11 5 -18 -1
-7 -6 -16 -8 -19 -5 -11 11 3 24 25 24 14 0 18 5 14 16 -3 9 -6 18 -6 20 0 11
-51 2 -56 -10z"/>
</g>
</svg>
