<?xml version="1.0" encoding="UTF-8"?><svg id="uuid-105853b1-3c36-4937-b482-64fc636c65cb" xmlns="http://www.w3.org/2000/svg" viewBox="0 0 885.1893 344.6052"><path d="m86.2753,102.8313c-.8785-5.2846-1.7141-10.2545-2.5294-15.2278-1.9564-11.9331-2.9135-23.9465-2.2549-36.0261.5174-9.4894,2.1017-18.8191,5.6964-27.6995,2.4209-5.9806,6-11.1575,10.816-15.482C104.9463,2.1618,113.0877-.5017,122.3491.0773c10.8963.6812,20.8131,4.4415,29.9945,10.0715,5.5838,3.424,10.8241,7.4176,16.1421,11.2614,2.2717,1.642,3.6447,3.8114,3.4465,6.8732-.2783,4.2995-5.3513,8.5486-10.1382,6.0465-1.8056-.9438-3.5099-2.0884-5.2262-3.1944-5.4269-3.4969-10.7451-7.1731-16.2789-10.4906-6.4281-3.8536-13.5786-5.3201-21.0185-5.3681-5.768-.0372-10.4058,2.3553-13.9504,6.876-4.5883,5.8519-6.6935,12.7019-7.8491,19.9005-2.0849,12.9879-1.5108,25.9714.2891,38.9298.6362,4.5803,1.4928,9.1302,2.2626,13.6916.1249.7402.2712,1.4842.4955,2.1989.8858,2.822,1.1889,3.1249,4.1084,2.9081,5.6879-.4223,11.3667-.9691,17.048-1.4778,6.3236-.5663,12.6462-1.1447,18.9686-1.7249,1.2852-.1179,2.5647-.3287,3.8518-.39,3.2594-.1551,5.6483-1.7696,7.6454-4.2351,3.5236-4.3498,7.0738-8.6799,10.6977-12.9461,17.0105-20.0259,35.7954-38.1498,57.4551-53.141,11.2206-7.7661,23.1861-14.0463,36.5029-17.4641,6.8582-1.7602,13.7972-2.3634,20.7802-.9871,10.4092,2.0516,18.3376,7.6587,23.5814,16.9472,3.5493,6.287,5.378,13.1199,6.2616,20.2217,1.5312,12.3061.3365,24.4919-1.8277,36.6182-.2248,1.2598-.574,2.534-1.0981,3.6966-1.3796,3.0604-4.4556,4.502-8.0674,3.9305-2.9354-.4645-5.3718-3.0615-5.5933-6.2529-.1105-1.5912.045-3.2335.3131-4.8131,1.8491-10.8963,2.3966-21.839.8467-32.7972-.5229-3.697-1.349-7.4519-2.7229-10.9075-3.1762-7.9885-9.3393-12.0473-17.9471-12.4575-6.4996-.3097-12.5656,1.5059-18.5541,3.6636-11.3674,4.0956-21.3453,10.6725-30.9738,17.7807-19.1755,14.1561-35.6459,31.1297-50.8772,49.3648-.5974.7153-1.068,1.5365-1.801,2.6046.7935.2173,1.258.4422,1.7298.4587,5.1629.1805,10.3319.233,15.4894.5065,8.7041.4616,17.4192.8593,26.0962,1.6507,9.424.8596,18.8326,1.9733,28.2073,3.27,16.537,2.2874,32.8054,5.9013,48.9087,10.3045,16.2434,4.4415,31.9979,10.1218,46.8859,18.0527,9.629,5.1294,18.8132,10.9247,26.608,18.6648,4.8378,4.8038,9.1192,10.031,11.9076,16.3505,5.091,11.5383,4.2705,22.6493-2.5157,33.2379-5.3489,8.3461-12.8208,14.5583-21.2965,19.4026-6.329,3.6174-13.0959,6.4779-19.715,9.5746-2.7516,1.2873-5.4848,1.0156-7.8611-1.0047-3.8454-3.2695-3.5935-8.7523.671-11.5781,2.1374-1.4162,4.5231-2.4927,6.8783-3.5385,6.3138-2.8033,12.5141-5.8289,17.9231-10.1692,3.1781-2.5502,6.3212-5.2382,9.0184-8.2744,5.9896-6.7426,6.8818-14.3928,2.8699-22.4692-2.9282-5.8948-7.4418-10.5276-12.504-14.6156-7.9233-6.3984-16.7978-11.2546-25.9589-15.597-16.3205-7.736-33.4603-13.0593-51.0756-16.8381-12.4039-2.6609-24.8472-5.181-37.3463-7.3392-7.0887-1.224-14.3092-1.8677-21.4987-2.2875-14.7213-.8595-29.4618-1.3887-44.194-2.0619-2.5802-.1179-5.1581-.2868-7.7381-.4111-2.9471-.142-5.1184,1.0489-6.7465,3.5692-9.9881,15.4619-20.0175,30.8972-30.0803,46.3106-1.6642,2.5491-1.9444,4.8708-.6824,7.8281,12.712,29.789,27.7466,58.3117,46.3993,84.824,12.9661,18.4295,26.8916,36.1047,43.6595,51.3139,9.1242,8.2761,18.9478,15.6014,30.1108,20.9664,5.5943,2.6886,11.4379,4.3149,17.7259,4.2535,7.8566-.0768,13.5636-3.7435,17.4471-10.3338,2.7558-4.6766,4.3709-9.8326,5.2029-15.187,1.9308-12.4263,1.7571-24.9167.3273-37.347-2.6073-22.6677-8.8135-44.4781-16.3392-65.9528-5.1667-14.7431-11.3559-29.0536-17.9054-43.2197-.6766-1.4635-1.3618-2.9351-1.8754-4.4595-1.5107-4.4836-.0801-8.0522,3.7869-9.6803,3.7926-1.5968,7.219-.3198,9.3827,3.7993,1.8996,3.6163,3.5531,7.3639,5.262,11.078,11.1346,24.1996,20.401,49.0612,26.5972,75.0143,3.2294,13.5264,5.657,27.1964,6.5887,41.0687.9273,13.806.4517,27.5617-3.639,40.9473-1.738,5.6871-4.0131,11.1449-7.6806,15.9058-8.23,10.6838-19.202,14.8981-32.4018,13.26-10.2087-1.267-19.4799-5.3243-28.1716-10.6684-13.3867-8.2309-25.1199-18.5115-35.9713-29.8002-13.465-14.0075-25.2459-29.3604-36.2106-45.3924-11.1414-16.2904-21.1166-33.2495-30.1491-50.7715-3.5485-6.8836-6.7391-13.9513-10.1172-20.9233-.825-1.7028-1.7464-3.3589-2.8004-5.3748-.5826.8366-.931,1.2203-1.1495,1.6675-9.6515,19.7483-18.4264,39.8442-24.2297,61.1192-2.7792,10.1885-5.1386,20.484-6.0375,31.008-.8722,10.2116-.8887,20.4339,2.3973,30.3731,2.691,8.1395,8.2116,13.0152,16.6321,14.326,2.8285.4403,5.8123.2917,8.6797-.014,5.501-.5865,10.6753-2.4356,15.6977-4.7208,7.5576-3.4385,14.8725-7.3006,21.6726-12.1005,1.5766-1.1129,3.1984-2.2401,4.9541-3.006,4.9882-2.1762,10.7782,2.0714,10.2478,7.4869-.0986,1.0069-.6735,2.0127-1.2037,2.9162-.3687.6282-.9851,1.1487-1.5792,1.6013-12.5009,9.5251-25.6792,17.7637-41.2458,21.3514-6.4373,1.4837-12.9825,2.2319-19.5557,1.3397-12.5726-1.7063-21.2781-8.7279-26.537-20.1151-3.9466-8.5456-5.4496-17.6359-5.5864-26.9894-.1982-13.5597,2.2417-26.7801,5.3071-39.8956,5.1443-22.0099,13.4637-42.8669,23.3175-63.1452,2.5868-5.3235,5.1627-10.6585,7.9655-15.8689,1.8567-3.4517,2.2207-6.8927,1.0823-10.5687-.4455-1.4387-.8821-2.8805-1.3516-4.3113-3.4547-10.5269-6.9169-21.0514-10.3762-31.5768-.1344-.4089-.2458-.826-.3961-1.2287-1.0471-2.8055-1.923-3.3201-4.8711-2.6889-10.9514,2.3447-21.7827,5.122-32.2303,9.2224-7.2306,2.8378-14.2861,6.0856-20.6292,10.5953-3.9327,2.796-7.5227,6.0756-11.247,9.1617-.5762.4775-1.0644,1.0668-1.5647,1.6296-6.7827,7.6297-7.5562,15.9079-2.1595,24.6126,3.3831,5.4568,7.6969,10.1497,12.9397,13.8348,4.8345,3.3982,9.9281,6.4278,14.9086,9.6181,1.3571.8693,2.8247,1.6038,4.056,2.6242,2.8362,2.3502,3.5352,6.045,1.8726,9.0123-1.9075,3.4043-5.461,4.8588-9.0732,3.3409-2.7646-1.1618-5.3791-2.7059-7.9914-4.2004-7.9818-4.5663-15.3705-9.9266-21.7438-16.6022-3.5087-3.6751-6.6315-7.6415-8.9426-12.1983-6.8875-13.58-5.5676-26.4068,3.6991-38.3936,4.4468-5.7521,9.8738-10.4787,15.9682-14.4617,12.6551-8.2707,26.5384-13.7167,40.9886-17.8215,5.8937-1.6742,11.8808-3.0192,17.8241-4.5192,1.0353-.2613,2.0642-.5482,3.441-.9152Zm50.306,8.9517c-3.89-.4924-29.5128,2.446-32.0235,3.6262,3.1319,9.9301,6.2726,19.8881,9.4133,29.8462.2447.0404.4893.0807.734.1211,7.2174-11.1597,14.6873-22.1551,21.8761-33.5935Z"/><path d="m212.4785,172.4322c-.0228,12.011-9.7281,21.6144-21.8551,21.6258-12.0965.0114-21.9741-9.9285-21.8789-22.0167.0931-11.8098,10.1544-21.5667,22.125-21.4555,12.1198.1126,21.6321,9.7294,21.609,21.8463Z"/><path d="m669.8844,95.8481c1.1324-.2143,1.9609-.5222,2.7808-.5006,3.8667.102,7.7386.1966,11.5919.5045,1.4558.1163,2.9822.5804,4.2773,1.2635,5.2607,2.775,5.3826,10.1316.2932,13.2231-.6174.375-1.237.7464-2.1738,1.3115.8932.3964,1.4223.7031,1.9923.8726,3.8642,1.1495,5.4124,4.0551,5.6866,7.7541.2507,3.3823-1.9755,6.6028-5.4234,8.0243-1.2757.5259-2.6696,1.0228-4.0222,1.0584-4.8199.1268-9.6453.0495-14.9171.0495-.2813-11.1932-.1783-22.3012-.0856-33.5609Zm4.1534,29.742c3.872,0,7.3925.0682,10.9071-.0469.9046-.0296,1.8739-.5032,2.6681-1.0035,1.9023-1.1982,2.609-3.0567,2.4452-5.2511-.1578-2.1153-1.1657-3.765-3.2018-4.4059-4.1415-1.3038-8.3766-1.1672-12.8187-.8069v11.5143Zm-.0169-26.1144v10.6484c3.6241.2437,7.036.3671,10.3988-.4277,2.7642-.6533,3.9418-2.1063,4.0594-4.6696.1114-2.4315-1.1111-4.4606-3.4992-5.2049-3.5442-1.1046-7.1471-.7261-10.9589-.3462Z"/><path d="m730.5635,112.5292c-.3762,3.9355-1.1636,7.5811-3.1834,10.868-3.2854,5.3465-8.2766,7.2212-14.3111,6.7111-5.6188-.475-9.7393-3.2911-11.9717-8.4601-2.4914-5.7683-2.5664-11.7251-.2358-17.5619,2.4113-6.0391,7.2066-9.0663,13.5465-9.1181,5.9312-.0484,11.0789,1.9886,13.9945,8.8944,1.1442,2.7099,1.4652,5.7674,2.161,8.6665Zm-14.6173,13.9921c1.8195.0138,4.7139-.8746,6.853-3.4984,3.8495-4.7217,4.2821-14.7436.8649-19.8292-2.1587-3.2126-5.2316-4.7647-9.0512-4.507-4.1772.2818-7.6791,1.7318-9.4852,5.996-2.0671,4.8807-2.2039,9.8336-.6752,14.7884,1.3983,4.5318,5.2285,7.0511,11.4936,7.0502Z"/><path d="m618.6932,112.5373c-.3147,3.2568-.851,6.3074-2.2023,9.1729-2.3869,5.0618-6.2623,8.0665-11.9709,8.4311-6.1632.3937-11.3985-1.4425-14.4406-7.0804-3.6511-6.7665-3.7538-13.8439-.1626-20.6841,2.8303-5.391,7.7092-7.5822,13.66-7.3609,6.2911.2339,10.8886,3.2333,13.1733,9.1323,1.0262,2.6497,1.318,5.5839,1.9431,8.389Zm-27.4526.4915c.5935,2.4784.8737,5.0887,1.8498,7.4059,1.6945,4.0228,4.9802,5.9688,9.405,6.0827,4.3774.1127,7.9664-1.4157,9.8238-5.4025,2.4444-5.2467,2.8151-10.7741.4622-16.2303-1.6852-3.9077-4.7638-6.1334-9.008-6.2125-4.3406-.0809-7.968,1.5126-10.1457,5.5837-1.4548,2.7198-2.1016,5.6092-2.3871,8.773Z"/><path d="m861.0284,95.6235c5.7893-.0353,11.2565-.6308,16.6209.6802,3.7627.9195,6.1906,3.4983,6.7611,7.388.6184,4.2161-.4426,7.9059-4.2205,10.4149-.7015.4659-1.4091.9225-2.3236,1.5205,2.4766,4.5045,4.8899,8.894,7.3229,13.3191-3.7485,1.0973-3.9257,1.0207-5.6039-2.1031-1.5764-2.9342-3.2374-5.8254-4.7237-8.8041-.7849-1.5731-1.8422-2.1698-3.5783-2.043-1.8971.1386-3.8121.0315-6.15.0315v13.3417c-1.4639.0676-2.4932.1152-3.9636.1831-.2356-11.3187-.044-22.4359-.1413-33.9288Zm4.3082,3.6886v12.9147c3.1303,0,6.0152.1234,8.8853-.0296,4.0776-.2174,5.9175-2.1498,6.0249-5.9969.1117-4.0001-1.754-6.4674-5.6443-6.8332-2.9535-.2777-5.954-.0551-9.2659-.0551Z"/><path d="m550.7183,112.4876c.471-2.5539.6382-4.9482,1.3703-7.1552,2.312-6.9688,7.603-10.5037,14.6215-10.3615,7.3342.1487,12.3996,4.2825,14.2893,11.2501,1.268,4.6752,1.2569,9.3295-.3533,13.9395-2.1993,6.2966-7.3432,10.0163-13.8796,10.0274-7.2414.0123-12.3217-3.3762-14.4892-10.0009-.822-2.5123-1.0726-5.2115-1.559-7.6995Zm27.2392-.3485c-.1633-3.2333-.8546-6.2233-2.5722-8.9555-4.5806-7.2864-15.8311-4.8185-18.4387.8823-2.41,5.2688-2.7398,10.6015-.5819,15.9681,1.8661,4.6408,5.5252,6.6952,10.8161,6.3908,4.8784-.2807,8.3733-2.9566,9.6234-7.6353.5785-2.165.7806-4.4306,1.1534-6.6505Z"/><path d="m735.4806,112.4307c.4993-2.5364.7204-5.0269,1.4947-7.3315,2.1778-6.4814,7.2339-10.2383,14.4566-10.1343,7.307.1052,12.4405,4.2436,14.3358,11.1888,1.2736,4.6672,1.2881,9.3235-.3075,13.9403-2.1812,6.3112-7.3136,10.0645-13.8309,10.0943-7.2633.0333-12.323-3.3064-14.5347-9.9366-.8362-2.5068-1.0927-5.2068-1.614-7.821Zm27.2685-.2477c-.1562-3.1182-.7969-6.0158-2.3742-8.6913-4.5381-7.6985-15.9802-5.1688-18.6215.5329-2.488,5.3706-2.7803,10.8155-.4826,16.2613,1.9243,4.5613,5.6172,6.4999,10.9793,6.1225,4.669-.3286,8.1028-3.014,9.3341-7.5764.5838-2.1636.7885-4.4295,1.1649-6.649Z"/><path d="m540.3042,109.5588v-13.6386h3.9628v33.4736h-4.0183v-14.6814c-2.6726-.8258-15.143-.9404-18.8823-.2004v14.8186c-1.3959.0895-2.4249.1554-3.9453.2529-.2078-11.3238-.0803-22.4517-.0786-33.8229h3.8565v13.819c2.7721.9722,16.4399.9563,19.1053-.0207Z"/><path d="m796.1822,103.6252c-3.2461.5547-3.1172.4578-4.7383-1.6986-.8529-1.1345-2.1182-2.214-3.4266-2.6962-2.4874-.9169-5.1024-.6054-7.5593.4269-2.1961.9227-3.3728,2.6378-3.3982,5.0251-.0241,2.2773,1.4464,3.5461,3.3678,4.2488,2.012.7357,4.112,1.2278,6.1644,1.8562,1.7431.5337,3.5016,1.0347,5.204,1.6805,6.4262,2.4379,6.3691,11.3176,1.8009,14.9836-4.7287,3.7949-13.8498,3.7363-18.3697-.2887-1.8142-1.6155-3.0435-3.5602-3.0396-6.3721,1.1266-.0507,2.1559-.0971,3.067-.1381,1.0409,1.459,1.7427,2.9991,2.914,3.977,3.1329,2.6157,9.1885,2.4675,12.388-.0594,2.8851-2.2786,2.922-5.7585-.136-7.8106-1.4786-.9922-3.2958-1.5184-5.0092-2.1127-2.3316-.8088-4.7639-1.3448-7.0574-2.2425-3.7272-1.4588-5.4981-4.4288-5.4567-8.3354.0394-3.7211,2.1797-6.2485,5.4149-7.765,4.4767-2.0986,8.9857-1.9513,13.3089.487,2.5436,1.4345,4.2123,3.5609,4.5611,6.8344Z"/><path d="m476.3046,103.6437c-2.3078.7085-3.7081.4023-4.6683-1.7588-.7709-1.7348-2.4253-2.785-4.3827-2.8734-1.9178-.0867-3.8823-.1165-5.7636.2008-2.6277.4431-4.2127,2.4215-4.3587,4.8967-.1285,2.1793.9781,3.893,3.4872,4.8503,1.998.7624,4.1087,1.2287,6.167,1.8343,1.544.4543,3.1114.8469,4.621,1.397,3.4936,1.2732,5.3355,3.824,5.5852,7.5314.2468,3.6634-1.2286,6.4632-4.2699,8.4569-4.3772,2.8695-11.9381,2.7917-16.2542-.1963-2.3945-1.6576-3.9227-3.8593-4.1329-7.1195,1.1748-.0711,2.2054-.1335,3.3716-.2041,1.9621,5.6367,6.4166,6.2354,11.2948,5.6122,1.4143-.1807,2.9129-.8846,4.0566-1.7612,2.6408-2.0239,2.5517-5.8648-.229-7.6962-1.5752-1.0374-3.4948-1.59-5.309-2.217-2.3295-.8052-4.7648-1.3233-7.0542-2.2209-3.7386-1.4657-5.4408-4.4967-5.3919-8.3704.0468-3.7053,2.1775-6.2513,5.4517-7.7186,4.843-2.1704,9.62-1.9505,14.1219.9993,2.1716,1.4229,3.4344,3.4468,3.6576,6.3575Z"/><path d="m853.1672,110.2108v3.8296h-15.6375v11.5508c5.4134.5018,10.8666-.0703,16.4146.34.0648,1.2016.1155,2.1403.1898,3.5152-6.9823.1983-13.7925.0671-20.8073.0925v-33.3709c2.5229-.8127,15.9766-.9341,20.5722-.2043.0842.8516.175,1.7691.3018,3.0509-5.5875.5676-11.0513-.1063-16.6628.4487v10.7476h15.6293Z"/><path d="m510.9984,120.7594c-.6936,1.4947-1.0526,3.1735-2.05,4.2731-7.4973,8.2651-20.3274,6.3302-24.3863-2.7095-2.8714-6.395-2.9793-12.9761-.0497-19.3861,3.8614-8.4488,14.2406-10.1438,21.1404-5.4432,2.7604,1.8805,4.1824,4.1787,4.8733,7.6297-3.1351.9196-3.4657.9537-4.5662-1.4525-3.1181-6.8174-14.1733-6.3612-17.3151-.1331-3.0497,6.0456-3.1902,12.3274.1174,18.2635,3.6009,6.4623,13.3328,6.4432,17.2361.1987,1.2382-1.9809,1.2974-1.9981,5.0001-1.2405Z"/><path d="m827.3032,95.5822v3.6339h-10.7436c-.2316,10.1988.0151,20.0218-.201,30.0725h-3.9441v-29.8823c-3.8543-.1036-7.3281-.197-10.9383-.294v-3.411c8.5879-.3306,17.0119-.1417,25.8271-.119Z"/><path d="m629.2045,125.7358h15.9313c.2263.7231.4427,1.2081.5184,1.714.0775.5179.0172,1.0564.0172,1.5498-2.3911.6729-16.8083.7937-20.401.1698v-33.3553h3.9342v29.9216Z"/><path d="m646.9942,117.619v-3.3683h15.4783c.0996.6337.2404,1.1371.2409,1.6407.0006.5103-.1376,1.0207-.2447,1.7276h-15.4745Z"/></svg>