<?xml version="1.0" encoding="UTF-8"?><svg id="uuid-5f09149a-0429-4b59-aea7-6e5b838b92e4" xmlns="http://www.w3.org/2000/svg" viewBox="0 0 31.7825 31.7825"><defs><style>.uuid-e9d6dd63-ce34-4a06-8983-0d0a401737fb{fill:#f5f;}.uuid-7924ecc9-fea4-4ca4-bf47-ecb65a1c14e3{fill:#fff;}.uuid-f32289f4-69c3-48da-9d02-f52b6e892937{fill:#7bff7b;}.uuid-35558795-f143-454c-86ec-83f377a9717b{fill:#1d1d1b;}</style></defs><path class="uuid-f32289f4-69c3-48da-9d02-f52b6e892937" d="m15.8913,0C7.115,0,0,7.115,0,15.8913s7.115,15.8913,15.8913,15.8913,15.8913-7.115,15.8913-15.8913S24.6675,0,15.8913,0Zm0,27.7839c-6.5678,0-11.8927-5.3237-11.8927-11.8927S9.3235,3.9986,15.8913,3.9986s11.8927,5.3249,11.8927,11.8927-5.3237,11.8927-11.8927,11.8927Z"/><path class="uuid-35558795-f143-454c-86ec-83f377a9717b" d="m20.8007,3.7211l.0109-.3546-.5306-.1953-.2172.2786-.4856-.1787,1.1686-1.3921.5436.2-.002,1.8215-.4876-.1795Zm.0247-.7764l.0174-.4912-.3031.386.2857.1052Z"/><path class="uuid-35558795-f143-454c-86ec-83f377a9717b" d="m22.7434,4.6872l-.4195-.2255-.1076-1.1003-.002-.0011-.4348.8087-.4173-.2245.8099-1.5064.4194.2255.1153,1.0862.002.001.4272-.7945.4175.2244-.8099,1.5064Z"/><path class="uuid-35558795-f143-454c-86ec-83f377a9717b" d="m24.6852,5.0291c-.3032.4164-.8173.4613-1.2689.1324l-.4665-.3396,1.0068-1.3826.4664.3396c.4516.3289.5654.8337.2622,1.2502Zm-.9887-.2214c.2092.1523.4305.1322.5815-.0751.1522-.2092.1034-.426-.1058-.5783l-.0777-.0566-.4757.6534.0777.0566Z"/><path class="uuid-35558795-f143-454c-86ec-83f377a9717b" d="m25.4777,4.5879l.4446.4164c.3124.2927.3998.6349.1227.9307-.1095.117-.321.2389-.6097.1317l-.0874.7433-.4295-.4023.1242-.6083-.0083-.0079-.3616.3861-.3643-.3413,1.1693-1.2483Zm-.1098,1.0047c.092.0861.2045.11.2859.0231.0831-.0886.0503-.1976-.0433-.2853l-.0768-.072-.2442.2607.0785.0735Z"/><path class="uuid-35558795-f143-454c-86ec-83f377a9717b" d="m26.7238,5.7956l.7675.8984-.3377.2886-.4433-.5189-.1567.1339.3986.4666-.3064.2618-.3986-.4666-.1619.1383.4432.5189-.3377.2885-.7675-.8984,1.3006-1.1111Zm.799.0823l.3035.3552-.5522-.0012-.2335-.2733.4821-.0807Z"/><path class="uuid-35558795-f143-454c-86ec-83f377a9717b" d="m26.9643,8.9268l.2177-.2803-.3141-.4705-.3399.0974-.2874-.4305,1.7649-.4377.3219.4819-1.0744,1.4719-.2888-.4324Zm.4773-.6134l.3034-.3871-.4725.1337.1692.2533Z"/><path class="uuid-35558795-f143-454c-86ec-83f377a9717b" d="m28.217,10.4326c.0276.0604.067.108.1077.1423l.4336-.1977.1872.4106-.6962.3174c-.1779-.1027-.3363-.2571-.4447-.4947-.2043-.4481-.0654-.9773.437-1.2063.5023-.2291.9968.0163,1.1994.4603.0949.2085.1179.3969.103.5573l-.4378.1996c.0455-.1819.004-.3669-.056-.4982-.1273-.2793-.3869-.3573-.61-.2556-.2272.1036-.3248.342-.2232.5651Z"/><path class="uuid-35558795-f143-454c-86ec-83f377a9717b" d="m28.5029,12.4118l.2882-.2069-.1677-.54-.3533-.0029-.1535-.4941,1.8158.081.1717.5531-1.4471,1.1062-.1541-.4963Zm.6314-.4525l.4005-.285-.4908-.0058.0903.2908Z"/><path class="uuid-35558795-f143-454c-86ec-83f377a9717b" d="m29.337,12.8025l.9995-.1733.0852.4918-.9949.1726c-.1873.0325-.2705.1422-.243.3002.0281.1624.1439.24.3334.2071l.9926-.1722.0857.4941-.9995.1733c-.4241.0736-.7779-.1579-.859-.6249-.0806-.4648.1758-.7951.5999-.8687Z"/><path class="uuid-35558795-f143-454c-86ec-83f377a9717b" d="m28.9685,15.6593l-.0189-.54,1.6867-.7072.018.5194-1.1713.4395,1.1987.3453.018.5171-1.7313-.5741Z"/><path class="uuid-35558795-f143-454c-86ec-83f377a9717b" d="m30.674,16.5519l-.059.6066c-.0414.4264-.2595.7043-.6631.6651-.1596-.0155-.3853-.1087-.4764-.403l-.6427.3841.057-.586.5582-.2726.0012-.0115-.5267-.0511.0483-.4971,1.7033.1655Zm-.8637.5261c-.0121.1254.0376.2292.1562.2407.1209.0118.1873-.0808.1997-.2085l.0102-.1048-.3556-.0346-.0105.1072Z"/><path class="uuid-35558795-f143-454c-86ec-83f377a9717b" d="m30.4739,18.285l-.2493,1.1549-.4342-.0937.144-.667-.2014-.0434-.1296.5998-.3938-.0851.1294-.5998-.2082-.045-.144.667-.4342-.0937.2493-1.1549,1.6719.3609Z"/><path class="uuid-35558795-f143-454c-86ec-83f377a9717b" d="m28.1289,20.3706l.3549.004.1849-.5346-.2829-.2117.1692-.4892,1.4153,1.1415-.1895.5476-1.8218.0337.17-.4912Zm.777.0095l.4916.0077-.392-.2956-.0995.2879Z"/><path class="uuid-35558795-f143-454c-86ec-83f377a9717b" d="m28.57,21.1748l.9092.4502-.2214.4475-.9052-.4481c-.1703-.0843-.3023-.045-.3735.0988-.0731.1477-.0256.2787.147.3641l.903.4471-.2226.4495-.9092-.4502c-.3859-.1912-.5349-.5869-.3246-1.0118.2093-.4228.6114-.5381.9973-.3471Z"/><path class="uuid-35558795-f143-454c-86ec-83f377a9717b" d="m24.8913,25.263l.3187.1556.396-.4034-.1648-.3124.3624-.3692.7888,1.637-.4057.4133-1.6593-.7502.3639-.3707Zm.6974.3414l.4406.2177-.2273-.4348-.2133.2171Z"/><path class="uuid-35558795-f143-454c-86ec-83f377a9717b" d="m23.2196,26.6451l.3762-.2919,1.0495.3477.0018-.0014-.5628-.7253.3744-.2906,1.0485,1.3513-.3762.2919-1.0396-.335-.0018.0014.5529.7126-.3744.2906-1.0485-1.3513Z"/><path class="uuid-35558795-f143-454c-86ec-83f377a9717b" d="m22.1189,28.2818c-.2579-.4461-.0903-.9344.3934-1.2139l.4995-.2888.8561,1.481-.4996.2888c-.4838.2797-.9916.1792-1.2495-.2671Zm.6033-.8142c-.224.1296-.2954.3402-.167.5621.1294.2241.3476.2673.5716.1378l.0833-.048-.4046-.6999-.0833.048Z"/><path class="uuid-35558795-f143-454c-86ec-83f377a9717b" d="m22.199,29.1861l-.562.2358c-.395.1657-.7432.1057-.9001-.2682-.062-.1478-.0869-.3908.1289-.6105l-.643-.3836.543-.2278.5047.3621.0105-.0045-.2047-.488.4604-.1932.6623,1.578Zm-.8728-.5107c-.1162.0487-.184.1417-.1379.2516.047.1119.16.1266.2783.0771l.0971-.0409-.1383-.3294-.0993.0417Z"/><path class="uuid-35558795-f143-454c-86ec-83f377a9717b" d="m20.5798,29.8321l-1.1354.3287-.1236-.4268.6557-.1898-.0572-.1981-.5897.1707-.1121-.3873.5897-.1707-.0593-.2046-.6557.1898-.1236-.4268,1.1354-.3287.4757,1.6435Zm-.4047.6942l-.4489.13.2289-.5026.3455-.1001-.1255.4727Z"/><path class="uuid-35558795-f143-454c-86ec-83f377a9717b" d="m17.628,28.7529l.1641.3147.5587-.0892.0532-.3496.5113-.0817-.3385,1.787-.5723.0915-.8898-1.5908.5134-.082Zm.3584.6896l.2253.4373.0756-.4853-.3009.048Z"/><path class="uuid-35558795-f143-454c-86ec-83f377a9717b" d="m15.7296,29.257c-.0664-.0012-.1262.0139-.1747.036l-.0079.4764-.4512-.0075.0127-.7649c.1691-.1163.3766-.193.6376-.1887.4923.0082.9103.361.9011.913-.0091.5519-.4432.8928-.9309.8848-.229-.0038-.409-.064-.5474-.1464l.008-.481c.1447.1192.3295.1613.4738.1636.3069.0051.4888-.1958.4929-.4407.0041-.2497-.1691-.4403-.4141-.4444Z"/><path class="uuid-35558795-f143-454c-86ec-83f377a9717b" d="m13.82,28.6936l.0681.3481.5607.0725.1498-.32.513.0664-.8299,1.6168-.5744-.0742-.4028-1.7763.5153.0667Zm.1484.7624l.0923.4828.2097-.4438-.302-.039Z"/><path class="uuid-35558795-f143-454c-86ec-83f377a9717b" d="m13.1163,29.2882l-.2591.981-.4828-.1275.258-.9765c.0486-.1838-.0165-.3051-.1715-.3462-.1594-.042-.2781.0308-.3273.2167l-.2574.9743-.4849-.1282.2591-.9809c.11-.4163.4679-.6415.9263-.5205.4562.1205.6495.4915.5396.9076Z"/><path class="uuid-35558795-f143-454c-86ec-83f377a9717b" d="m10.6706,27.7635l.499.2073-.0579,1.8282-.48-.1995.0871-1.2482-.8124.9469-.4778-.1986,1.2419-1.3361Z"/><path class="uuid-35558795-f143-454c-86ec-83f377a9717b" d="m9.1586,28.9481l-.5279-.3037c-.3711-.2137-.5343-.5269-.3322-.8781.08-.1389.258-.3059.5635-.2675l-.0847-.7436.51.2935.018.6206.0099.0056.2638-.4584.4327.2489-.8531,1.4825Zm-.1227-1.0032c-.1092-.0629-.2242-.0603-.2836.0429-.0605.1052-.0037.2038.1074.2678l.0913.0525.1782-.3096-.0933-.0537Z"/><path class="uuid-35558795-f143-454c-86ec-83f377a9717b" d="m7.6592,28.0503l-.9499-.7037.2646-.3572.5486.4065.1227-.1657-.4934-.3655.24-.3241.4933.3655.1268-.1711-.5486-.4065.2646-.357.9499.7036-1.0187,1.3752Z"/><path class="uuid-35558795-f143-454c-86ec-83f377a9717b" d="m6.7263,25.0514l-.1501.3214.4103.3891.3096-.1702.3754.3561-1.6236.817-.4203-.3986.7216-1.6726.3771.3577Zm-.3295.7034l-.2101.4444.431-.2349-.2209-.2096Z"/><path class="uuid-35558795-f143-454c-86ec-83f377a9717b" d="m5.8101,25.1196l-.7863.6412-.3156-.3869.7827-.6384c.1473-.1201.1661-.2566.0647-.3808-.1042-.1278-.2431-.1386-.3922-.0171l-.781.637-.317-.3887.7863-.6413c.3337-.2721.7557-.2438,1.0554.1236.2982.3656.2367.7793-.0971,1.0515Z"/><path class="uuid-35558795-f143-454c-86ec-83f377a9717b" d="m3.6224,20.0804l-.2744.2248.2017.5281.3527-.0194.1846.4831-1.8171.0349-.2066-.541,1.3736-1.1959.1853.4854Zm-.6012.4917l-.3816.3099.4902-.0254-.1086-.2844Z"/><path class="uuid-35558795-f143-454c-86ec-83f377a9717b" d="m3.0645,17.9817l.108.4639-.7547.8081.0006.0023.8943-.2082.1075.4617-1.666.3877-.108-.4639.739-.8045-.0005-.0022-.8787.2046-.1075-.4617,1.666-.3878Z"/><path class="uuid-35558795-f143-454c-86ec-83f377a9717b" d="m2.0362,16.2974c.513-.048.8868.308.939.8643l.0539.5745-1.7033.1596-.0539-.5746c-.0521-.5562.2513-.9758.7643-1.0238Zm.4881.8881c-.0242-.2576-.1857-.4104-.441-.3865-.2577.0242-.388.2043-.3639.4619l.009.0958.8048-.0754-.0089-.0958Z"/><path class="uuid-35558795-f143-454c-86ec-83f377a9717b" d="m1.1771,15.9826l.0249-.6086c.0176-.4279.2197-.7176.6247-.701.1602.0066.3906.0871.498.3757l.62-.4192-.0241.5881-.5419.3032-.0004.0114.5286.0217-.0205.4988-1.7092-.0701Zm.8326-.5732c.0051-.1258-.0503-.2267-.1693-.2315-.1213-.005-.1825.091-.1878.2192l-.0043.1052.357.0146.0044-.1075Z"/><path class="uuid-35558795-f143-454c-86ec-83f377a9717b" d="m.821,13.5912l.0709-.4619.3598.4191-.0545.3555-.3761-.3126Zm.4597.6592l.1792-1.1683.4393.0674-.1035.6747.2038.0313.0932-.6068.3984.0611-.0931.6068.2106.0323.1035-.6747.4393.0674-.1793,1.1683-1.6913-.2595Z"/><path class="uuid-35558795-f143-454c-86ec-83f377a9717b" d="m3.4825,12.013l-.3542.0225-.1445.5469.298.1901-.1322.5004-1.4967-1.0326.148-.5602,1.8143-.1697-.1328.5026Zm-.7756.0486l-.4909.029.4131.2655.0778-.2945Z"/><path class="uuid-35558795-f143-454c-86ec-83f377a9717b" d="m3.7687,10.0757c.0265-.061.0356-.122.0338-.1752l-.4369-.1902.1802-.4138.7015.3054c.0424.2009.0337.4219-.0706.6613-.1966.4516-.6829.7021-1.1892.4817s-.6544-.7522-.4597-1.1996c.0915-.21.2162-.3531.3455-.4492l.4411.192c-.1657.0879-.2754.2424-.3331.3747-.1225.2814-.0069.5267.2178.6245.229.0997.4716.0129.5695-.2118Z"/><path class="uuid-35558795-f143-454c-86ec-83f377a9717b" d="m5.0496,8.5387l-.3464-.0764-.29.4853.2337.2649-.2653.444-1.1518-1.4055.297-.4971,1.7893.3386-.2665.446Zm-.7583-.1678l-.4794-.1078.3233.3692.1562-.2613Z"/><path class="uuid-35558795-f143-454c-86ec-83f377a9717b" d="m4.7864,7.6559l-.7908-.635.3126-.3892.7871.6322c.1482.119.2855.1089.3858-.016.1032-.1285.0848-.2666-.065-.387l-.7854-.6308.314-.3909.7907.6351c.3356.2695.3959.6879.0992,1.0574-.2953.3678-.7126.3938-1.0481.1242Z"/><path class="uuid-35558795-f143-454c-86ec-83f377a9717b" d="m7.1786,6.0528l-.3963.3675-1.6386-.8135.3812-.3536,1.0989.5989-.523-1.133.3795-.352.6982,1.6857Z"/><path class="uuid-35558795-f143-454c-86ec-83f377a9717b" d="m6.7413,4.1792l.4992-.3494c.351-.2457.704-.2607.9365.0715.0919.1314.1678.3635.0034.624l.7096.2388-.4824.3376-.57-.247-.0094.0066.3035.4336-.4092.2864-.9814-1.402Zm.9611.3144c.1032-.0723.1498-.1776.0815-.2752-.0696-.0995-.1832-.0899-.2883-.0163l-.0863.0604.205.2928.0882-.0617Z"/><path class="uuid-35558795-f143-454c-86ec-83f377a9717b" d="m8.1934,3.2034l1.0405-.5594.2103.3912-.601.3231.0976.1815.5404-.2905.1908.3549-.5405.2905.1008.1876.601-.3231.2103.3912-1.0405.5594-.8099-1.5064Z"/><path class="uuid-35558795-f143-454c-86ec-83f377a9717b" d="m11.3026,3.6287l-.2287-.2713-.5257.2091.0244.3527-.481.1913-.0598-1.8176.5385-.2142,1.2155,1.358-.4831.1921Zm-.5003-.5948l-.3153-.3775.0323.4901.283-.1126Z"/><path class="uuid-35558795-f143-454c-86ec-83f377a9717b" d="m11.6206,2.7697l-.2706-.9773.4809-.1332.2694.9729c.0507.1831.1681.2552.3225.2124.1588-.044.2246-.1667.1733-.352l-.2688-.9708.4831-.1338.2706.9774c.1149.4148-.0806.7896-.5373.9161-.4545.1258-.8083-.0969-.9232-.5116Z"/><path class="uuid-7924ecc9-fea4-4ca4-bf47-ecb65a1c14e3" d="m24.2182,12.6671h-11.6824l-1.3078,2.4029h10.5872c-.0009.0036-.0009.008-.0018.0116-.0482.31-.1206.6119-.2162.9031-.7477,2.2859-2.8978,3.9367-5.4338,3.9367s-4.6862-1.6508-5.4339-3.9367c-.184-.5601-.2832-1.1586-.2832-1.7803,0-2.6557,1.8098-4.8881,4.2645-5.5312.4636-.1215.9505-.1858,1.4525-.1858s.9889.0643,1.4525.1858l-1.4525-2.6673c-4.5281,0-8.1986,3.6705-8.1986,8.1986,0,1.641.4815,3.1685,1.3113,4.4495,1.4605,2.2564,3.9992,3.7491,6.8872,3.7491s5.4267-1.4927,6.8872-3.7491c.6798-1.0496,1.1264-2.2654,1.2649-3.5722.0304-.2885.0465-.5806.0465-.8772,0-.5253-.0491-1.0398-.1438-1.5373Z"/><path class="uuid-e9d6dd63-ce34-4a06-8983-0d0a401737fb" d="m19.7902,12.6671h-7.2544l2.1752-3.9939c.4636-.1215.9505-.1858,1.4525-.1858s.9889.0643,1.4525.1858l2.1743,3.9939Z"/><path class="uuid-e9d6dd63-ce34-4a06-8983-0d0a401737fb" d="m16.1635,22.403H7.2351l2.0412-3.7491c1.4605,2.2564,3.9992,3.7491,6.8872,3.7491Z"/><path class="uuid-e9d6dd63-ce34-4a06-8983-0d0a401737fb" d="m25.0919,22.403h-8.9284c2.888,0,5.4267-1.4927,6.8872-3.7491l2.0412,3.7491Z"/></svg>