<?xml version="1.0" encoding="UTF-8"?><svg id="uuid-1ed54ec1-fc91-49c7-8aee-16834ee26a24" xmlns="http://www.w3.org/2000/svg" viewBox="0 0 15.8373 15.8373"><defs><style>.uuid-960cbdb5-3672-4dc9-ae34-c8edb50b7652{fill:#f5f;}.uuid-ea7e1681-3434-48b5-851e-7505a391ce60{fill:#fff;}.uuid-060ca1e0-bdcf-4946-8c20-47cf222242d1{fill:#7bff7b;}.uuid-de96b4af-998a-4771-ad03-1cdf346023e2{fill:#1d1d1b;}</style></defs><path class="uuid-060ca1e0-bdcf-4946-8c20-47cf222242d1" d="m7.9186,0C3.5454,0,0,3.5454,0,7.9186s3.5454,7.9186,7.9186,7.9186,7.9186-3.5454,7.9186-7.9186S12.2919,0,7.9186,0Zm0,13.8448c-3.2727,0-5.9261-2.6528-5.9261-5.9261S4.6459,1.9925,7.9186,1.9925s5.9261,2.6534,5.9261,5.9261-2.6528,5.9261-5.9261,5.9261Z"/><path class="uuid-de96b4af-998a-4771-ad03-1cdf346023e2" d="m10.365,1.8542l.0054-.1767-.2644-.0973-.1082.1388-.242-.089.5823-.6937.2709.0997-.001.9076-.243-.0894Zm.0123-.3869l.0087-.2448-.151.1924.1424.0524Z"/><path class="uuid-de96b4af-998a-4771-ad03-1cdf346023e2" d="m11.3331,2.3356l-.209-.1124-.0536-.5483-.001-.0005-.2167.403-.208-.1118.4036-.7506.209.1124.0574.5413.001.0005.2129-.3959.208.1118-.4036.7507Z"/><path class="uuid-de96b4af-998a-4771-ad03-1cdf346023e2" d="m12.3007,2.506c-.1511.2075-.4073.2299-.6323.066l-.2325-.1692.5017-.689.2324.1692c.225.1639.2818.4154.1307.623Zm-.4927-.1103c.1042.0759.2145.0659.2898-.0374.0758-.1042.0515-.2123-.0527-.2882l-.0387-.0282-.2371.3256.0387.0282Z"/><path class="uuid-de96b4af-998a-4771-ad03-1cdf346023e2" d="m12.6956,2.2862l.2215.2075c.1557.1458.1992.3164.0611.4638-.0546.0583-.16.119-.3038.0656l-.0436.3704-.214-.2005.0619-.3031-.0041-.0039-.1802.1924-.1815-.1701.5827-.622Zm-.0547.5006c.0458.0429.1019.0548.1424.0115.0414-.0441.0251-.0985-.0216-.1422l-.0383-.0359-.1217.1299.0391.0366Z"/><path class="uuid-de96b4af-998a-4771-ad03-1cdf346023e2" d="m13.3165,2.888l.3824.4477-.1683.1438-.2209-.2586-.0781.0667.1986.2325-.1527.1304-.1986-.2325-.0807.0689.2208.2586-.1683.1438-.3824-.4477.6481-.5537Zm.3982.041l.1512.177-.2751-.0006-.1163-.1362.2402-.0402Z"/><path class="uuid-de96b4af-998a-4771-ad03-1cdf346023e2" d="m13.4364,4.4483l.1085-.1397-.1565-.2344-.1694.0486-.1432-.2145.8795-.2181.1604.2401-.5354.7335-.1439-.2154Zm.2378-.3056l.1512-.1929-.2355.0666.0843.1262Z"/><path class="uuid-de96b4af-998a-4771-ad03-1cdf346023e2" d="m14.0606,5.1986c.0138.0301.0334.0538.0537.0709l.216-.0985.0933.2046-.3469.1582c-.0886-.0512-.1676-.1281-.2216-.2465-.1018-.2233-.0326-.487.2178-.6011.2503-.1141.4967.0081.5976.2294.0473.1039.0588.1978.0513.2777l-.2181.0995c.0227-.0906.002-.1828-.0279-.2483-.0634-.1392-.1928-.1781-.304-.1274-.1132.0516-.1619.1704-.1112.2816Z"/><path class="uuid-de96b4af-998a-4771-ad03-1cdf346023e2" d="m14.2031,6.1848l.1436-.1031-.0835-.2691-.1761-.0015-.0765-.2462.9048.0404.0856.2756-.7211.5512-.0768-.2473Zm.3146-.2255l.1996-.142-.2446-.0029.045.1449Z"/><path class="uuid-de96b4af-998a-4771-ad03-1cdf346023e2" d="m14.6187,6.3795l.4981-.0864.0425.2451-.4958.086c-.0933.0162-.1348.0709-.1211.1496.014.0809.0717.1196.1661.1032l.4946-.0858.0427.2462-.4981.0864c-.2113.0367-.3877-.0787-.428-.3114-.0402-.2316.0876-.3962.299-.4329Z"/><path class="uuid-de96b4af-998a-4771-ad03-1cdf346023e2" d="m14.435,7.8031l-.0094-.2691.8405-.3524.009.2588-.5836.219.5973.1721.009.2577-.8627-.2861Z"/><path class="uuid-de96b4af-998a-4771-ad03-1cdf346023e2" d="m15.2849,8.2478l-.0294.3023c-.0206.2125-.1293.351-.3304.3314-.0795-.0077-.192-.0542-.2374-.2008l-.3203.1914.0284-.292.2781-.1358.0006-.0057-.2625-.0255.0241-.2477.8488.0825Zm-.4304.2621c-.006.0625.0187.1142.0778.12.0602.0059.0933-.0402.0995-.1039l.0051-.0522-.1772-.0173-.0052.0534Z"/><path class="uuid-de96b4af-998a-4771-ad03-1cdf346023e2" d="m15.1852,9.1115l-.1242.5755-.2164-.0467.0718-.3324-.1004-.0216-.0646.2989-.1962-.0424.0645-.2989-.1037-.0224-.0718.3324-.2164-.0467.1242-.5755.8331.1798Z"/><path class="uuid-de96b4af-998a-4771-ad03-1cdf346023e2" d="m14.0167,10.1507l.1768.002.0921-.2664-.141-.1055.0843-.2437.7053.5688-.0944.2728-.9078.0168.0847-.2448Zm.3872.0047l.245.0038-.1954-.1473-.0496.1435Z"/><path class="uuid-de96b4af-998a-4771-ad03-1cdf346023e2" d="m14.2365,10.5515l.453.2243-.1103.223-.4511-.2233c-.0849-.042-.1507-.0224-.1861.0492-.0364.0736-.0127.1389.0732.1814l.45.2228-.1109.224-.453-.2243c-.1923-.0953-.2665-.2925-.1617-.5042.1043-.2107.3047-.2681.497-.1729Z"/><path class="uuid-de96b4af-998a-4771-ad03-1cdf346023e2" d="m12.4034,12.5886l.1588.0776.1973-.201-.0821-.1557.1806-.184.3931.8157-.2022.2059-.8268-.3738.1813-.1847Zm.3475.1701l.2196.1085-.1133-.2167-.1063.1082Z"/><path class="uuid-de96b4af-998a-4771-ad03-1cdf346023e2" d="m11.5704,13.2773l.1875-.1454.523.1733.0009-.0007-.2804-.3614.1866-.1448.5225.6734-.1875.1454-.5181-.167-.0009.0007.2755.3551-.1866.1448-.5225-.6734Z"/><path class="uuid-de96b4af-998a-4771-ad03-1cdf346023e2" d="m11.0219,14.0929c-.1285-.2223-.045-.4656.1961-.6049l.2489-.1439.4266.738-.249.1439c-.2411.1394-.4941.0893-.6226-.1331Zm.3006-.4057c-.1116.0646-.1472.1695-.0832.2801.0645.1117.1732.1332.2848.0686l.0415-.0239-.2016-.3487-.0415.0239Z"/><path class="uuid-de96b4af-998a-4771-ad03-1cdf346023e2" d="m11.0618,14.5435l-.28.1175c-.1968.0826-.3703.0527-.4485-.1337-.0309-.0737-.0433-.1947.0642-.3042l-.3204-.1912.2706-.1135.2515.1805.0052-.0022-.102-.2432.2294-.0963.33.7863Zm-.4349-.2545c-.0579.0243-.0917.0706-.0687.1254.0234.0558.0797.0631.1387.0384l.0484-.0204-.0689-.1642-.0495.0208Z"/><path class="uuid-de96b4af-998a-4771-ad03-1cdf346023e2" d="m10.2549,14.8654l-.5657.1638-.0616-.2127.3267-.0946-.0285-.0987-.2939.0851-.0558-.193.2939-.0851-.0295-.1019-.3267.0946-.0616-.2127.5657-.1638.2371.819Zm-.2017.3459l-.2237.0648.114-.2504.1722-.0499-.0625.2355Z"/><path class="uuid-de96b4af-998a-4771-ad03-1cdf346023e2" d="m8.784,14.3276l.0818.1568.2784-.0444.0265-.1742.2548-.0407-.1687.8905-.2852.0456-.4434-.7927.2558-.0409Zm.1786.3437l.1123.2179.0377-.2418-.15.0239Z"/><path class="uuid-de96b4af-998a-4771-ad03-1cdf346023e2" d="m7.8381,14.5788c-.0331-.0006-.0629.0069-.087.018l-.0039.2374-.2248-.0038.0063-.3812c.0843-.0579.1876-.0961.3177-.094.2453.0041.4536.1799.449.455-.0045.275-.2208.4449-.4639.4409-.1141-.0019-.2038-.0319-.2728-.073l.004-.2397c.0721.0594.1642.0804.2361.0815.1529.0025.2436-.0975.2456-.2196.002-.1244-.0842-.2194-.2064-.2215Z"/><path class="uuid-de96b4af-998a-4771-ad03-1cdf346023e2" d="m6.8865,14.2981l.0339.1734.2794.0361.0747-.1594.2557.0331-.4135.8057-.2862-.037-.2007-.8851.2568.0332Zm.0739.3799l.046.2406.1045-.2211-.1505-.0194Z"/><path class="uuid-de96b4af-998a-4771-ad03-1cdf346023e2" d="m6.5359,14.5944l-.1291.4888-.2406-.0635.1286-.4866c.0242-.0916-.0082-.1521-.0855-.1725-.0794-.0209-.1386.0153-.1631.108l-.1283.4855-.2416-.0639.1291-.4888c.0548-.2075.2332-.3196.4616-.2593.2273.06.3237.2449.2689.4523Z"/><path class="uuid-de96b4af-998a-4771-ad03-1cdf346023e2" d="m5.3172,13.8346l.2486.1033-.0288.911-.2392-.0994.0434-.622-.4048.4718-.2381-.099.6189-.6658Z"/><path class="uuid-de96b4af-998a-4771-ad03-1cdf346023e2" d="m4.5637,14.4249l-.263-.1514c-.1849-.1065-.2663-.2625-.1656-.4376.0399-.0692.1286-.1524.2808-.1333l-.0422-.3705.2542.1463.009.3093.0049.0028.1315-.2284.2156.124-.4251.7388Zm-.0612-.4999c-.0544-.0313-.1117-.0301-.1413.0214-.0301.0524-.0018.1016.0535.1335l.0455.0262.0888-.1543-.0465-.0267Z"/><path class="uuid-de96b4af-998a-4771-ad03-1cdf346023e2" d="m3.8166,13.9775l-.4733-.3507.1318-.178.2734.2025.0612-.0826-.2458-.1821.1196-.1615.2458.1821.0632-.0853-.2734-.2025.1318-.1779.4733.3506-.5076.6853Z"/><path class="uuid-de96b4af-998a-4771-ad03-1cdf346023e2" d="m3.3517,12.4832l-.0748.1601.2045.1939.1543-.0848.1871.1775-.809.4071-.2094-.1986.3596-.8334.1879.1782Zm-.1642.3505l-.1047.2215.2148-.117-.1101-.1044Z"/><path class="uuid-de96b4af-998a-4771-ad03-1cdf346023e2" d="m2.8952,12.5172l-.3918.3195-.1572-.1928.39-.3181c.0734-.0599.0827-.1279.0323-.1898-.0519-.0637-.1211-.0691-.1954-.0085l-.3892.3174-.158-.1937.3918-.3196c.1663-.1356.3766-.1215.5259.0616.1486.1822.1179.3884-.0484.524Z"/><path class="uuid-de96b4af-998a-4771-ad03-1cdf346023e2" d="m1.8051,10.0061l-.1367.112.1005.2632.1758-.0097.092.2408-.9055.0174-.1029-.2696.6845-.5959.0924.2419Zm-.2996.245l-.1901.1544.2443-.0127-.0541-.1417Z"/><path class="uuid-de96b4af-998a-4771-ad03-1cdf346023e2" d="m1.5271,8.9603l.0538.2311-.3761.4027.0003.0011.4456-.1037.0536.2301-.8302.1932-.0538-.2311.3683-.4009-.0003-.0011-.4379.1019-.0536-.2301.8302-.1933Z"/><path class="uuid-de96b4af-998a-4771-ad03-1cdf346023e2" d="m1.0146,8.121c.2557-.0239.4419.1535.4679.4307l.0268.2863-.8488.0795-.0268-.2863c-.0259-.2772.1252-.4862.3809-.5102Zm.2432.4425c-.012-.1284-.0925-.2045-.2198-.1926-.1284.012-.1933.1018-.1813.2302l.0045.0478.4011-.0376-.0045-.0478Z"/><path class="uuid-de96b4af-998a-4771-ad03-1cdf346023e2" d="m.5865,7.9641l.0124-.3033c.0088-.2132.1095-.3576.3113-.3493.0798.0033.1947.0434.2481.1872l.3089-.2089-.012.293-.27.1511-.0002.0057.2634.0108-.0102.2486-.8517-.0349Zm.4149-.2856c.0025-.0627-.0251-.113-.0844-.1154-.0604-.0025-.0909.0454-.0936.1092l-.0021.0524.1779.0073.0022-.0536Z"/><path class="uuid-de96b4af-998a-4771-ad03-1cdf346023e2" d="m.4091,6.7725l.0353-.2302.1793.2088-.0272.1771-.1874-.1558Zm.2291.3285l.0893-.5822.2189.0336-.0516.3362.1015.0156.0464-.3024.1985.0305-.0464.3024.1049.0161.0516-.3362.2189.0336-.0893.5822-.8428-.1293Z"/><path class="uuid-de96b4af-998a-4771-ad03-1cdf346023e2" d="m1.7353,5.9861l-.1765.0112-.072.2725.1485.0947-.0659.2493-.7458-.5146.0738-.2791.9041-.0846-.0662.2505Zm-.3865.0242l-.2446.0145.2059.1323.0388-.1467Z"/><path class="uuid-de96b4af-998a-4771-ad03-1cdf346023e2" d="m1.8779,5.0207c.0132-.0304.0177-.0608.0168-.0873l-.2177-.0948.0898-.2062.3496.1522c.0211.1001.0168.2103-.0352.3295-.098.2251-.3403.3499-.5926.2401s-.3261-.3748-.2291-.5977c.0456-.1046.1077-.176.1722-.2238l.2198.0957c-.0826.0438-.1373.1208-.166.1867-.0611.1402-.0034.2625.1085.3112.1141.0497.235.0064.2838-.1055Z"/><path class="uuid-de96b4af-998a-4771-ad03-1cdf346023e2" d="m2.5162,4.2548l-.1726-.038-.1445.2418.1164.132-.1322.2213-.5739-.7004.148-.2477.8916.1687-.1328.2223Zm-.3778-.0836l-.2389-.0537.1611.184.0778-.1302Z"/><path class="uuid-de96b4af-998a-4771-ad03-1cdf346023e2" d="m2.3851,3.8149l-.3941-.3164.1557-.1939.3922.315c.0738.0593.1422.0543.1923-.008.0514-.0641.0423-.1328-.0324-.1928l-.3914-.3143.1564-.1948.394.3165c.1672.1343.1973.3428.0494.5269-.1472.1833-.3551.1962-.5223.0619Z"/><path class="uuid-de96b4af-998a-4771-ad03-1cdf346023e2" d="m3.5771,3.0161l-.1975.1831-.8165-.4054.1899-.1762.5476.2984-.2606-.5646.1891-.1754.3479.84Z"/><path class="uuid-de96b4af-998a-4771-ad03-1cdf346023e2" d="m3.3592,2.0825l.2488-.1741c.1749-.1224.3508-.1299.4667.0356.0458.0655.0836.1812.0017.311l.3536.119-.2404.1682-.284-.1231-.0047.0033.1512.216-.2039.1427-.489-.6986Zm.4789.1567c.0514-.036.0746-.0885.0406-.1371-.0347-.0496-.0913-.0448-.1436-.0081l-.043.0301.1021.1459.0439-.0308Z"/><path class="uuid-de96b4af-998a-4771-ad03-1cdf346023e2" d="m4.0828,1.5963l.5185-.2788.1048.1949-.2995.161.0486.0904.2693-.1448.0951.1769-.2693.1448.0502.0935.2995-.161.1048.1949-.5185.2788-.4036-.7506Z"/><path class="uuid-de96b4af-998a-4771-ad03-1cdf346023e2" d="m5.6321,1.8082l-.114-.1352-.262.1042.0122.1757-.2397.0953-.0298-.9057.2683-.1067.6057.6767-.2408.0957Zm-.2493-.2964l-.1571-.1881.0161.2442.141-.0561Z"/><path class="uuid-de96b4af-998a-4771-ad03-1cdf346023e2" d="m5.7906,1.3802l-.1349-.487.2396-.0664.1343.4848c.0253.0912.0838.1272.1607.1058.0791-.0219.1119-.0831.0863-.1754l-.1339-.4837.2408-.0667.1349.487c.0572.2067-.0402.3934-.2678.4565-.2265.0627-.4028-.0483-.46-.255Z"/><path class="uuid-ea7e1681-3434-48b5-851e-7505a391ce60" d="m12.068,6.312h-5.8214l-.6517,1.1974h5.2756c-.0004.0018-.0004.004-.0009.0058-.024.1545-.0601.3049-.1077.45-.3726,1.1391-1.444,1.9617-2.7077,1.9617s-2.3351-.8226-2.7077-1.9617c-.0917-.2791-.1411-.5773-.1411-.8871,0-1.3234.9018-2.4357,2.125-2.7562.231-.0605.4736-.0926.7238-.0926s.4928.032.7238.0926l-.7238-1.3291c-2.2563,0-4.0854,1.829-4.0854,4.0854,0,.8177.2399,1.5789.6534,2.2172.7278,1.1244,1.9928,1.8682,3.4319,1.8682s2.7041-.7438,3.4319-1.8682c.3387-.523.5613-1.1288.6303-1.7801.0151-.1438.0231-.2893.0231-.4371,0-.2617-.0245-.5181-.0717-.7661Z"/><path class="uuid-960cbdb5-3672-4dc9-ae34-c8edb50b7652" d="m9.8615,6.312h-3.6149l1.0839-1.9902c.231-.0605.4736-.0926.7238-.0926s.4928.032.7238.0926l1.0834,1.9902Z"/><path class="uuid-960cbdb5-3672-4dc9-ae34-c8edb50b7652" d="m8.0543,11.1635H3.6053l1.0171-1.8682c.7278,1.1244,1.9928,1.8682,3.4319,1.8682Z"/><path class="uuid-960cbdb5-3672-4dc9-ae34-c8edb50b7652" d="m12.5033,11.1635h-4.449c1.4391,0,2.7041-.7438,3.4319-1.8682l1.0171,1.8682Z"/></svg>